M48
;Layer_Color=9474304
;FILE_FORMAT=4:4
METRIC,LZ
;TYPE=PLATED
T1F00S00C0.7112
T2F00S00C0.7620
%
T01
X0112649Y003937
X0125981Y003924
X0137414Y0048387
X0120523Y0055245
X0116713Y005793
X0113919Y0051689
X0111125Y0054229
X0101473Y0053975
X009906Y0055118
X0099187Y0052578
X01021572Y00497348
X0096266Y0046355
X0089408Y0045466
X0087376Y0043561
X0086741Y0041021
X0079756Y0053467
X0079375Y0056134
X0089154Y0062357
X0115824Y0041021
X0117856Y0042545
X0074316Y004318
X0063373Y0045614
X004776Y0042418
T02
X00508Y003937
X005334
X0061468
X0064008
Y0057912
X0061468
X005334
X00508
M30
