G04*
G04 #@! TF.GenerationSoftware,Altium Limited,Altium Designer,18.1.7 (191)*
G04*
G04 Layer_Physical_Order=2*
G04 Layer_Color=16711680*
%FSLAX44Y44*%
%MOMM*%
G71*
G01*
G75*
%ADD11R,1.2000X3.5000*%
%ADD12R,1.5000X3.4000*%
%ADD19R,2.0000X8.0000*%
%ADD34C,0.7620*%
%ADD35C,1.5240*%
%ADD36R,1.5240X1.5240*%
%ADD37C,1.2700*%
G04:AMPARAMS|DCode=38|XSize=1.5mm|YSize=3.4mm|CornerRadius=0mm|HoleSize=0mm|Usage=FLASHONLY|Rotation=45.000|XOffset=0mm|YOffset=0mm|HoleType=Round|Shape=Rectangle|*
%AMROTATEDRECTD38*
4,1,4,0.6718,-1.7324,-1.7324,0.6718,-0.6718,1.7324,1.7324,-0.6718,0.6718,-1.7324,0.0*
%
%ADD38ROTATEDRECTD38*%

G04:AMPARAMS|DCode=39|XSize=1.2mm|YSize=3.5mm|CornerRadius=0mm|HoleSize=0mm|Usage=FLASHONLY|Rotation=45.000|XOffset=0mm|YOffset=0mm|HoleType=Round|Shape=Rectangle|*
%AMROTATEDRECTD39*
4,1,4,0.8132,-1.6617,-1.6617,0.8132,-0.8132,1.6617,1.6617,-0.8132,0.8132,-1.6617,0.0*
%
%ADD39ROTATEDRECTD39*%

G04:AMPARAMS|DCode=40|XSize=1.5mm|YSize=3.4mm|CornerRadius=0mm|HoleSize=0mm|Usage=FLASHONLY|Rotation=315.000|XOffset=0mm|YOffset=0mm|HoleType=Round|Shape=Rectangle|*
%AMROTATEDRECTD40*
4,1,4,-1.7324,-0.6718,0.6718,1.7324,1.7324,0.6718,-0.6718,-1.7324,-1.7324,-0.6718,0.0*
%
%ADD40ROTATEDRECTD40*%

G04:AMPARAMS|DCode=41|XSize=1.2mm|YSize=3.5mm|CornerRadius=0mm|HoleSize=0mm|Usage=FLASHONLY|Rotation=315.000|XOffset=0mm|YOffset=0mm|HoleType=Round|Shape=Rectangle|*
%AMROTATEDRECTD41*
4,1,4,-1.6617,-0.8132,0.8132,1.6617,1.6617,0.8132,-0.8132,-1.6617,-1.6617,-0.8132,0.0*
%
%ADD41ROTATEDRECTD41*%

D11*
X1015520Y587690D02*
D03*
X990520D02*
D03*
X965520D02*
D03*
D12*
X1045020Y520190D02*
D03*
X936020D02*
D03*
D19*
X821960Y297180D02*
D03*
X782560D02*
D03*
X743160D02*
D03*
X703760D02*
D03*
X664360D02*
D03*
X624960D02*
D03*
X585560D02*
D03*
X546160D02*
D03*
X506760D02*
D03*
X467360D02*
D03*
X1141610D02*
D03*
X1181010D02*
D03*
X1220410D02*
D03*
X1259810D02*
D03*
X1299210D02*
D03*
X1338610D02*
D03*
D34*
X1085358Y497348D02*
X1167220Y579210D01*
X1238250Y485140D02*
X1370330D01*
X1259810Y297180D02*
Y392400D01*
X1178560Y425450D02*
Y427939D01*
X1209091Y458470D01*
X1158240Y410210D02*
Y438360D01*
X1156970Y439630D02*
X1158240Y438360D01*
X1156970Y439630D02*
X1196407Y479067D01*
X1211580Y458470D02*
X1238250Y485140D01*
X1176225Y493825D02*
X1205230Y522831D01*
Y552450D01*
X1139190Y516890D02*
X1174750Y552450D01*
X1205230D01*
X1139190Y276452D02*
Y516890D01*
X1038860Y614680D02*
X1111250Y542290D01*
X1021572Y497348D02*
X1085358D01*
X1139190Y276452D02*
X1143835Y271807D01*
X1014730Y539750D02*
Y586900D01*
Y519430D02*
Y539750D01*
X984250Y488950D02*
X1014730Y519430D01*
X1141020Y300280D02*
X1142850Y298450D01*
X984250Y614680D02*
X1038860D01*
X1209091Y458470D02*
X1211580D01*
X867410Y410210D02*
X920750Y463550D01*
X902954Y476266D02*
X963626D01*
X914400Y488950D02*
X984250D01*
X891540Y623570D02*
X937260D01*
X1045066Y476394D02*
X1126490Y393700D01*
X937260Y623570D02*
X938530Y624840D01*
X965520Y597850D01*
X508000Y579120D02*
X533400D01*
X633520Y456140D02*
X633730D01*
X631190Y458470D02*
X633520Y456140D01*
X566420Y393700D02*
X631190Y458470D01*
X533400Y393700D02*
X566420D01*
X836930Y598170D02*
X889323Y545777D01*
X552450Y598170D02*
X836930D01*
X533400Y579120D02*
X552450Y598170D01*
X965520Y595950D02*
Y597850D01*
Y587690D02*
Y595950D01*
X984250Y614680D01*
X963754Y476394D02*
X1045066D01*
X971873Y545777D02*
X991870Y525780D01*
X889323Y545777D02*
X971873D01*
X1014730Y586900D02*
X1015520Y587690D01*
X990600Y551180D02*
Y581660D01*
X824230Y579120D02*
X914400Y488950D01*
X963626Y476266D02*
X963754Y476394D01*
X920750Y463550D02*
X962660D01*
X753110Y520700D02*
X793750Y561340D01*
X640080Y579120D02*
X824230D01*
X753110Y482409D02*
Y520700D01*
Y482409D02*
X763070Y472449D01*
X797560Y534670D02*
X844550D01*
X902954Y476266D01*
X798425Y507805D02*
X851570Y454660D01*
X894080D01*
X780748Y490127D02*
X835265Y435610D01*
X873760D01*
X614680Y579120D02*
X640080D01*
X798425Y507805D02*
X801161Y510540D01*
X743160Y452539D02*
X763070Y472449D01*
X743160Y431800D02*
Y452539D01*
X508000Y393700D02*
X533400D01*
X508000D02*
Y393780D01*
X477600Y424180D02*
X508000Y393780D01*
D35*
Y579120D02*
D03*
X533400D02*
D03*
Y393700D02*
D03*
X508000D02*
D03*
D36*
X614680Y579120D02*
D03*
X640080D02*
D03*
X614680Y393700D02*
D03*
X640080D02*
D03*
D37*
X1167130Y579300D02*
D03*
X1374140Y483870D02*
D03*
X1259810Y392400D02*
D03*
X1178560Y425450D02*
D03*
X1158240Y410210D02*
D03*
X1205230Y552450D02*
D03*
X1111250Y542290D02*
D03*
X1139190Y516890D02*
D03*
X1014730Y539750D02*
D03*
X867410Y410210D02*
D03*
X891540Y623570D02*
D03*
X1021572Y497348D02*
D03*
X1126490Y393700D02*
D03*
X477600Y424180D02*
D03*
X633730Y456140D02*
D03*
X991870Y525780D02*
D03*
X990600Y551180D02*
D03*
X962660Y463550D02*
D03*
X793750Y561340D02*
D03*
X797560Y534670D02*
D03*
X894080Y454660D02*
D03*
X873760Y435610D02*
D03*
X743160Y431800D02*
D03*
D38*
X867015Y480935D02*
D03*
X789940Y403860D02*
D03*
D39*
X798425Y507805D02*
D03*
X780748Y490127D02*
D03*
X763070Y472449D02*
D03*
D40*
X1184710Y389881D02*
D03*
X1107635Y466955D02*
D03*
D41*
X1211580Y458470D02*
D03*
X1193902Y476148D02*
D03*
X1176225Y493825D02*
D03*
M02*
